<?xml version="1.0" encoding="UTF-8" standalone="no"?>
<!-- Created with Inkscape (http://www.inkscape.org/) -->

<svg
   version="1.1"
   id="svg2"
   width="666.66669"
   height="666.66669"
   viewBox="0 0 666.66669 666.66669"
   sodipodi:docname="3974103.eps"
   xmlns:inkscape="http://www.inkscape.org/namespaces/inkscape"
   xmlns:sodipodi="http://sodipodi.sourceforge.net/DTD/sodipodi-0.dtd"
   xmlns="http://www.w3.org/2000/svg"
   xmlns:svg="http://www.w3.org/2000/svg">
  <defs
     id="defs6" />
  <sodipodi:namedview
     id="namedview4"
     pagecolor="#ffffff"
     bordercolor="#000000"
     borderopacity="0.25"
     inkscape:showpageshadow="2"
     inkscape:pageopacity="0.0"
     inkscape:pagecheckerboard="0"
     inkscape:deskcolor="#d1d1d1" />
  <g
     id="g8"
     inkscape:groupmode="layer"
     inkscape:label="ink_ext_XXXXXX"
     transform="matrix(1.3333333,0,0,-1.3333333,0,666.66667)">
    <g
       id="g10"
       transform="scale(0.1)">
      <path
         d="M 5000,0 H 0 V 5000 H 5000 V 0"
         style="fill:#ffffff;fill-opacity:1;fill-rule:nonzero;stroke:none"
         id="path12" />
      <path
         d="m 541.941,2422.96 c 202.942,-229.76 459.829,-319.03 586.509,-598.18 86.84,-191.35 46.1,-417.89 110.26,-617.99 87.94,-274.239 376.86,-458.489 664.87,-459.481 288.01,-0.977 562.54,162.179 733.45,394.011 56.04,76.02 104.63,161.51 183.2,213.93 112.53,75.07 258.5,65.42 393.23,77.42 332.21,29.59 647.03,216.15 832.53,493.33 0,0 481.23,567.82 140.56,1380.12 -99.01,236.11 -259.53,452.95 -480.87,581.63 -221.35,128.67 -606.5,131.74 -834.4,15.07 -242.31,-124.04 -403.39,-395.91 -668.97,-455.63 -153.93,-34.61 -312.87,10.37 -467.88,39.79 -217.46,41.28 -439.11,66.92 -658.69,39.04 -258.427,-32.82 -519.099,-162.4 -639.65,-453.74 -42.223,-102.03 -56.406,-213.96 -39.586,-323.09 15.09,-97.88 53.23,-221.85 145.437,-326.23"
         style="fill:#f3f2fa;fill-opacity:1;fill-rule:nonzero;stroke:none"
         id="path14" />
      <path
         d="m 2539.02,4100.67 c -55.85,70.14 -142.89,108.41 -229.92,129.98 -120.08,29.76 -249.21,32.05 -365.69,-9.62 -116.48,-41.67 -218.65,-130.5 -261.6,-246.52 -42.95,-116.01 -19.28,-257.86 69.84,-343.67 49.93,-48.07 120.06,-73.94 189.02,-73.75 40.89,-4.36 82.66,0.24 121.09,15.04 85.51,32.95 148.34,107.72 230.35,148.62 89.12,44.44 203.66,51.55 263.97,130.79 54.31,71.35 38.8,179 -17.06,249.13"
         style="fill:#f3f2fa;fill-opacity:1;fill-rule:nonzero;stroke:none"
         id="path16" />
      <path
         d="m 932.395,1615.35 c -9.313,19.07 -17.973,38.37 -23.633,58.8 -18.11,65.39 -4.953,139.99 -40.063,198.05 -44.101,72.93 -152.73,86.24 -226.633,43.79 -73.902,-42.46 -116.156,-125.52 -134.179,-208.83 -11.094,-51.29 -14.332,-105.92 3.246,-155.39 20.441,-57.5 66.926,-102.19 117.625,-136.18 56.359,-37.77 122.18,-65.5 189.992,-63.2 30.203,1.02 60.645,9.02 87.5,23.07 21.184,9.19 39.977,23.41 52.918,41.85 9.402,11.14 17.332,23.5 23.129,37.14 24.083,56.69 2.359,131.3 -49.902,160.9"
         style="fill:#f3f2fa;fill-opacity:1;fill-rule:nonzero;stroke:none"
         id="path18" />
      <path
         d="M 3604.63,1620.2 H 1487.22 c -19.87,0 -36.13,16.26 -36.13,36.13 v 1358.61 c 0,19.87 16.26,36.13 36.13,36.13 h 2117.41 c 19.87,0 36.13,-16.26 36.13,-36.13 V 1656.33 c 0,-19.87 -16.26,-36.13 -36.13,-36.13"
         style="fill:#6564b8;fill-opacity:1;fill-rule:nonzero;stroke:none"
         id="path20" />
      <path
         d="M 3586.56,1758.95 H 1505.29 V 2947.01 H 3586.56 V 1758.95"
         style="fill:#d0bbe3;fill-opacity:1;fill-rule:nonzero;stroke:none"
         id="path22" />
      <path
         d="m 2559.01,3003.3 c 0,-7.23 -5.86,-13.08 -13.09,-13.08 -7.22,0 -13.08,5.85 -13.08,13.08 0,7.22 5.86,13.08 13.08,13.08 7.23,0 13.09,-5.86 13.09,-13.08"
         style="fill:#d0bbe3;fill-opacity:1;fill-rule:nonzero;stroke:none"
         id="path24" />
      <path
         d="m 3935.46,1153.33 -268.96,428.05 c -15.18,24.16 -41.71,38.82 -70.23,38.82 h -1097.23 -60.7 -942.76 c -28.53,0 -55.06,-14.66 -70.23,-38.82 l -268.96,-428.05 c -7.61,-12.12 -10.32,-26.53 -7.94,-40.43 h 2794.94 c 2.39,13.9 -0.32,28.31 -7.93,40.43"
         style="fill:#d0bbe3;fill-opacity:1;fill-rule:nonzero;stroke:none"
         id="path26" />
      <path
         d="m 1148.45,1112.9 c 0.49,-2.87 1.12,-5.73 2.05,-8.53 l 4.24,-12.71 c 7.86,-23.58 29.91,-39.47 54.75,-39.47 h 1228.85 60.7 1383.31 c 24.84,0 46.89,15.89 54.75,39.47 l 4.24,12.71 c 0.93,2.8 1.56,5.66 2.05,8.53 H 1148.45"
         style="fill:#6564b8;fill-opacity:1;fill-rule:nonzero;stroke:none"
         id="path28" />
      <path
         d="m 1596.79,1408.96 13.09,28.81 h -64.8 l -13.87,-28.81 h 65.58"
         style="fill:#6564b8;fill-opacity:1;fill-rule:nonzero;stroke:none"
         id="path30" />
      <path
         d="m 1710.96,1490.97 6.43,15.04 5.89,13.79 h -62.71 l -13.1,-28.83 h 63.49"
         style="fill:#6564b8;fill-opacity:1;fill-rule:nonzero;stroke:none"
         id="path32" />
      <path
         d="m 1623.28,1437.77 -13.09,-28.81 h 65.71 l 12.32,28.81 h -64.94"
         style="fill:#6564b8;fill-opacity:1;fill-rule:nonzero;stroke:none"
         id="path34" />
      <path
         d="m 1615.43,1449.97 13.1,28.82 h -63.7 l -13.88,-28.82 h 64.48"
         style="fill:#6564b8;fill-opacity:1;fill-rule:nonzero;stroke:none"
         id="path36" />
      <path
         d="m 2934.98,1519.8 7.25,-28.83 h 55.74 l -8.03,28.83 h -54.96"
         style="fill:#6564b8;fill-opacity:1;fill-rule:nonzero;stroke:none"
         id="path38" />
      <path
         d="m 1935.04,1437.77 -8.81,-28.81 h 66.26 l 8.42,28.81 h -65.87"
         style="fill:#6564b8;fill-opacity:1;fill-rule:nonzero;stroke:none"
         id="path40" />
      <path
         d="m 1857.54,1437.77 -10.37,-28.81 h 66.31 l 8.8,28.81 h -64.74"
         style="fill:#6564b8;fill-opacity:1;fill-rule:nonzero;stroke:none"
         id="path42" />
      <path
         d="m 1779.69,1437.77 -11.53,-28.81 h 66.05 l 10.37,28.81 h -64.89"
         style="fill:#6564b8;fill-opacity:1;fill-rule:nonzero;stroke:none"
         id="path44" />
      <path
         d="m 1701.49,1437.77 -12.32,-28.81 h 65.84 l 11.54,28.81 h -65.06"
         style="fill:#6564b8;fill-opacity:1;fill-rule:nonzero;stroke:none"
         id="path46" />
      <path
         d="m 3002.59,1519.8 8.03,-28.83 h 52.07 l -8.43,28.83 h -51.67"
         style="fill:#6564b8;fill-opacity:1;fill-rule:nonzero;stroke:none"
         id="path48" />
      <path
         d="m 2159.13,1478.79 -7.25,-28.82 h 52.4 l 6.47,28.82 h -51.62"
         style="fill:#6564b8;fill-opacity:1;fill-rule:nonzero;stroke:none"
         id="path50" />
      <path
         d="m 2727.63,1519.8 4.92,-28.83 h 60.46 l -5.69,28.83 h -59.69"
         style="fill:#6564b8;fill-opacity:1;fill-rule:nonzero;stroke:none"
         id="path52" />
      <path
         d="m 2149.63,1490.97 7.24,28.83 h -54.95 l -8.04,-28.83 h 55.75"
         style="fill:#6564b8;fill-opacity:1;fill-rule:nonzero;stroke:none"
         id="path54" />
      <path
         d="m 2081.22,1490.97 8.03,28.83 h -51.67 l -8.42,-28.83 h 52.06"
         style="fill:#6564b8;fill-opacity:1;fill-rule:nonzero;stroke:none"
         id="path56" />
      <path
         d="m 2213.49,1490.97 6.47,28.83 h -50.52 l -7.24,-28.83 h 51.29"
         style="fill:#6564b8;fill-opacity:1;fill-rule:nonzero;stroke:none"
         id="path58" />
      <path
         d="m 3066.97,1519.8 8.43,-28.83 h 65.15 l -8.83,28.83 h -64.75"
         style="fill:#6564b8;fill-opacity:1;fill-rule:nonzero;stroke:none"
         id="path60" />
      <path
         d="m 1887.06,1519.8 -10.37,-28.83 h 61.86 l 4.55,14.88 4.26,13.95 h -60.3"
         style="fill:#6564b8;fill-opacity:1;fill-rule:nonzero;stroke:none"
         id="path62" />
      <path
         d="m 1863.72,1490.97 10.37,28.83 h -61.55 L 1801,1490.97 h 62.72"
         style="fill:#6564b8;fill-opacity:1;fill-rule:nonzero;stroke:none"
         id="path64" />
      <path
         d="m 1736.55,1519.8 -12.33,-28.83 h 63.64 l 6,15.01 5.54,13.82 h -62.85"
         style="fill:#6564b8;fill-opacity:1;fill-rule:nonzero;stroke:none"
         id="path66" />
      <path
         d="m 2871.89,1519.8 6.47,-28.83 h 51.29 l -7.25,28.83 h -50.51"
         style="fill:#6564b8;fill-opacity:1;fill-rule:nonzero;stroke:none"
         id="path68" />
      <path
         d="m 2799.75,1519.8 5.7,-28.83 h 60.41 l -6.47,28.83 h -59.64"
         style="fill:#6564b8;fill-opacity:1;fill-rule:nonzero;stroke:none"
         id="path70" />
      <path
         d="m 2016.46,1490.97 8.42,28.83 h -64.77 l -8.81,-28.83 h 65.16"
         style="fill:#6564b8;fill-opacity:1;fill-rule:nonzero;stroke:none"
         id="path72" />
      <path
         d="m 2092.65,1531.99 7.48,26.84 h -51.14 l -7.85,-26.84 h 51.51"
         style="fill:#6564b8;fill-opacity:1;fill-rule:nonzero;stroke:none"
         id="path74" />
      <path
         d="m 2028.44,1531.99 7.84,26.84 h -64.23 l -8.21,-26.84 h 64.6"
         style="fill:#6564b8;fill-opacity:1;fill-rule:nonzero;stroke:none"
         id="path76" />
      <path
         d="m 2656.43,1519.8 3.36,-28.83 h 60.38 l -4.9,28.83 h -58.84"
         style="fill:#6564b8;fill-opacity:1;fill-rule:nonzero;stroke:none"
         id="path78" />
      <path
         d="m 2294.5,1531.99 5.3,26.84 h -58.57 l -6.02,-26.84 h 59.29"
         style="fill:#6564b8;fill-opacity:1;fill-rule:nonzero;stroke:none"
         id="path80" />
      <path
         d="m 2222.7,1531.99 6.03,26.84 h -49.47 l -6.74,-26.84 h 50.18"
         style="fill:#6564b8;fill-opacity:1;fill-rule:nonzero;stroke:none"
         id="path82" />
      <path
         d="m 2159.94,1531.99 6.75,26.84 h -53.9 l -7.48,-26.84 h 54.63"
         style="fill:#6564b8;fill-opacity:1;fill-rule:nonzero;stroke:none"
         id="path84" />
      <path
         d="m 3368.57,1519.8 12.32,-28.83 h 63.49 l -13.1,28.83 h -62.71"
         style="fill:#6564b8;fill-opacity:1;fill-rule:nonzero;stroke:none"
         id="path86" />
      <path
         d="m 1728.5,1531.99 11.47,26.84 h -61.67 l -12.19,-26.84 h 62.39"
         style="fill:#6564b8;fill-opacity:1;fill-rule:nonzero;stroke:none"
         id="path88" />
      <path
         d="m 1804.28,1531.99 10.74,26.84 h -61.79 l -11.47,-26.84 h 62.52"
         style="fill:#6564b8;fill-opacity:1;fill-rule:nonzero;stroke:none"
         id="path90" />
      <path
         d="m 1951.09,1531.99 8.2,26.84 h -58.2 l -9.65,-26.84 h 59.65"
         style="fill:#6564b8;fill-opacity:1;fill-rule:nonzero;stroke:none"
         id="path92" />
      <path
         d="m 3444.67,1519.8 13.11,-28.83 h 63.37 l -13.89,28.83 h -62.59"
         style="fill:#6564b8;fill-opacity:1;fill-rule:nonzero;stroke:none"
         id="path94" />
      <path
         d="m 1878.48,1531.99 9.65,26.84 h -59.97 l -10.74,-26.84 h 61.06"
         style="fill:#6564b8;fill-opacity:1;fill-rule:nonzero;stroke:none"
         id="path96" />
      <path
         d="m 3144.48,1519.8 8.83,-28.83 h 61.86 l -10.38,28.83 h -60.31"
         style="fill:#6564b8;fill-opacity:1;fill-rule:nonzero;stroke:none"
         id="path98" />
      <path
         d="m 2288.33,1437.77 -5.7,-28.81 h 62.69 l 4.91,28.81 h -61.9"
         style="fill:#6564b8;fill-opacity:1;fill-rule:nonzero;stroke:none"
         id="path100" />
      <path
         d="m 2013.61,1437.77 -8.41,-28.81 h 53.17 l 8.02,28.81 h -52.78"
         style="fill:#6564b8;fill-opacity:1;fill-rule:nonzero;stroke:none"
         id="path102" />
      <path
         d="m 2214.05,1437.77 -6.48,-28.81 h 62.63 l 5.69,28.81 h -61.84"
         style="fill:#6564b8;fill-opacity:1;fill-rule:nonzero;stroke:none"
         id="path104" />
      <path
         d="m 2079.05,1437.77 -8.02,-28.81 h 57.95 l 7.25,28.81 h -57.18"
         style="fill:#6564b8;fill-opacity:1;fill-rule:nonzero;stroke:none"
         id="path106" />
      <path
         d="m 2148.81,1437.77 -7.25,-28.81 h 53.51 l 6.47,28.81 h -52.73"
         style="fill:#6564b8;fill-opacity:1;fill-rule:nonzero;stroke:none"
         id="path108" />
      <path
         d="m 2376.58,1519.8 -4.91,-28.83 h 60.39 l 3.36,28.83 h -58.84"
         style="fill:#6564b8;fill-opacity:1;fill-rule:nonzero;stroke:none"
         id="path110" />
      <path
         d="m 2366.29,1531.99 4.57,26.84 h -58.63 l -5.3,-26.84 h 59.36"
         style="fill:#6564b8;fill-opacity:1;fill-rule:nonzero;stroke:none"
         id="path112" />
      <path
         d="m 2296.42,1478.79 -5.69,-28.82 h 61.58 l 4.91,28.82 h -60.8"
         style="fill:#6564b8;fill-opacity:1;fill-rule:nonzero;stroke:none"
         id="path114" />
      <path
         d="m 3292.46,1519.8 11.53,-28.83 h 63.63 l -12.32,28.83 h -62.84"
         style="fill:#6564b8;fill-opacity:1;fill-rule:nonzero;stroke:none"
         id="path116" />
      <path
         d="m 2427.29,1449.97 3.35,28.82 h -61.05 l -4.91,-28.82 h 62.61"
         style="fill:#6564b8;fill-opacity:1;fill-rule:nonzero;stroke:none"
         id="path118" />
      <path
         d="m 3217.75,1519.8 10.38,-28.83 h 62.72 l -11.54,28.83 h -61.56"
         style="fill:#6564b8;fill-opacity:1;fill-rule:nonzero;stroke:none"
         id="path120" />
      <path
         d="m 1634.07,1490.97 13.1,28.83 h -62.59 l -13.88,-28.83 h 63.37"
         style="fill:#6564b8;fill-opacity:1;fill-rule:nonzero;stroke:none"
         id="path122" />
      <path
         d="m 3020.83,1408.96 -8.03,28.81 h -57.18 l 7.25,-28.81 h 57.96"
         style="fill:#6564b8;fill-opacity:1;fill-rule:nonzero;stroke:none"
         id="path124" />
      <path
         d="m 2090.48,1478.79 -8.02,-28.82 h 56.84 l 7.25,28.82 h -56.07"
         style="fill:#6564b8;fill-opacity:1;fill-rule:nonzero;stroke:none"
         id="path126" />
      <path
         d="m 3128,1531.99 -8.2,26.84 h -64.23 l 7.83,-26.84 h 64.6"
         style="fill:#6564b8;fill-opacity:1;fill-rule:nonzero;stroke:none"
         id="path128" />
      <path
         d="m 3274.42,1531.99 -10.73,26.84 h -59.98 l 9.66,-26.84 h 61.05"
         style="fill:#6564b8;fill-opacity:1;fill-rule:nonzero;stroke:none"
         id="path130" />
      <path
         d="m 3200.42,1531.99 -9.67,26.84 h -58.2 l 8.21,-26.84 h 59.66"
         style="fill:#6564b8;fill-opacity:1;fill-rule:nonzero;stroke:none"
         id="path132" />
      <path
         d="m 2856.65,1531.99 -6.03,26.84 h -58.56 l 5.28,-26.84 h 59.31"
         style="fill:#6564b8;fill-opacity:1;fill-rule:nonzero;stroke:none"
         id="path134" />
      <path
         d="m 2784.92,1531.99 -5.29,26.84 h -58.65 l 4.57,-26.84 h 59.37"
         style="fill:#6564b8;fill-opacity:1;fill-rule:nonzero;stroke:none"
         id="path136" />
      <path
         d="m 3350.08,1531.99 -11.46,26.84 h -61.79 l 10.73,-26.84 h 62.52"
         style="fill:#6564b8;fill-opacity:1;fill-rule:nonzero;stroke:none"
         id="path138" />
      <path
         d="m 2986.54,1531.99 -7.48,26.84 h -53.9 l 6.75,-26.84 h 54.63"
         style="fill:#6564b8;fill-opacity:1;fill-rule:nonzero;stroke:none"
         id="path140" />
      <path
         d="m 2919.33,1531.99 -6.75,26.84 h -49.46 l 6.03,-26.84 h 50.18"
         style="fill:#6564b8;fill-opacity:1;fill-rule:nonzero;stroke:none"
         id="path142" />
      <path
         d="m 2950.29,1408.96 -7.25,28.81 h -52.73 l 6.46,-28.81 h 53.52"
         style="fill:#6564b8;fill-opacity:1;fill-rule:nonzero;stroke:none"
         id="path144" />
      <path
         d="m 3402.68,1408.96 -12.31,28.81 h -65.07 l 11.53,-28.81 h 65.85"
         style="fill:#6564b8;fill-opacity:1;fill-rule:nonzero;stroke:none"
         id="path146" />
      <path
         d="m 3244.68,1408.96 -10.37,28.81 h -64.74 l 8.81,-28.81 h 66.3"
         style="fill:#6564b8;fill-opacity:1;fill-rule:nonzero;stroke:none"
         id="path148" />
      <path
         d="m 3560.64,1408.96 -13.89,28.81 h -64.79 l 13.09,-28.81 h 65.59"
         style="fill:#6564b8;fill-opacity:1;fill-rule:nonzero;stroke:none"
         id="path150" />
      <path
         d="m 3481.67,1408.96 -13.1,28.81 h -64.94 l 12.3,-28.81 h 65.74"
         style="fill:#6564b8;fill-opacity:1;fill-rule:nonzero;stroke:none"
         id="path152" />
      <path
         d="m 3323.69,1408.96 -11.54,28.81 h -64.87 l 10.36,-28.81 h 66.05"
         style="fill:#6564b8;fill-opacity:1;fill-rule:nonzero;stroke:none"
         id="path154" />
      <path
         d="m 2884.27,1408.96 -6.46,28.81 h -61.85 l 5.69,-28.81 h 62.62"
         style="fill:#6564b8;fill-opacity:1;fill-rule:nonzero;stroke:none"
         id="path156" />
      <path
         d="m 3425.74,1531.99 -12.19,26.84 h -61.67 l 11.47,-26.84 h 62.39"
         style="fill:#6564b8;fill-opacity:1;fill-rule:nonzero;stroke:none"
         id="path158" />
      <path
         d="m 3534.68,1490.97 h 58.47 l -16.29,28.83 h -56.06 l 13.88,-28.83"
         style="fill:#6564b8;fill-opacity:1;fill-rule:nonzero;stroke:none"
         id="path160" />
      <path
         d="m 3086.66,1408.96 -8.43,28.81 h -52.77 l 8.02,-28.81 h 53.18"
         style="fill:#6564b8;fill-opacity:1;fill-rule:nonzero;stroke:none"
         id="path162" />
      <path
         d="m 3501.39,1531.99 -12.93,26.84 h -61.52 l 12.19,-26.84 h 62.26"
         style="fill:#6564b8;fill-opacity:1;fill-rule:nonzero;stroke:none"
         id="path164" />
      <path
         d="m 3165.62,1408.96 -8.82,28.81 h -65.87 l 8.43,-28.81 h 66.26"
         style="fill:#6564b8;fill-opacity:1;fill-rule:nonzero;stroke:none"
         id="path166" />
      <path
         d="m 3569.98,1531.99 -15.17,26.84 H 3502 l 12.94,-26.84 h 55.04"
         style="fill:#6564b8;fill-opacity:1;fill-rule:nonzero;stroke:none"
         id="path168" />
      <path
         d="m 3050.7,1531.99 -7.83,26.84 h -51.15 l 7.48,-26.84 h 51.5"
         style="fill:#6564b8;fill-opacity:1;fill-rule:nonzero;stroke:none"
         id="path170" />
      <path
         d="m 2657.05,1408.96 -3.35,28.81 h -63.22 l 1.17,-28.81 h 65.4"
         style="fill:#6564b8;fill-opacity:1;fill-rule:nonzero;stroke:none"
         id="path172" />
      <path
         d="m 1719.02,1478.79 -6.43,-15.03 -5.89,-13.79 h 64.74 l 11.53,28.82 h -63.95"
         style="fill:#6564b8;fill-opacity:1;fill-rule:nonzero;stroke:none"
         id="path174" />
      <path
         d="m 2727.17,1449.97 -4.92,28.82 h -61.05 l 3.37,-28.82 h 62.6"
         style="fill:#6564b8;fill-opacity:1;fill-rule:nonzero;stroke:none"
         id="path176" />
      <path
         d="m 1693.43,1449.97 12.32,28.82 h -63.83 l -6.85,-15.07 -6.25,-13.75 h 64.61"
         style="fill:#6564b8;fill-opacity:1;fill-rule:nonzero;stroke:none"
         id="path178" />
      <path
         d="m 2232.47,1519.8 -6.47,-28.83 h 60.4 l 5.69,28.83 h -59.62"
         style="fill:#6564b8;fill-opacity:1;fill-rule:nonzero;stroke:none"
         id="path180" />
      <path
         d="m 2304.53,1519.8 -5.7,-28.83 h 60.47 l 4.92,28.83 h -59.69"
         style="fill:#6564b8;fill-opacity:1;fill-rule:nonzero;stroke:none"
         id="path182" />
      <path
         d="m 1947.57,1478.79 -8.81,-28.82 h 65.71 l 8.42,28.82 h -65.32"
         style="fill:#6564b8;fill-opacity:1;fill-rule:nonzero;stroke:none"
         id="path184" />
      <path
         d="m 1796.11,1478.79 -11.53,-28.82 h 64.38 l 10.37,28.82 h -63.22"
         style="fill:#6564b8;fill-opacity:1;fill-rule:nonzero;stroke:none"
         id="path186" />
      <path
         d="m 2025.6,1478.79 -8.42,-28.82 h 52.61 l 8.03,28.82 h -52.22"
         style="fill:#6564b8;fill-opacity:1;fill-rule:nonzero;stroke:none"
         id="path188" />
      <path
         d="m 2588.83,1478.79 1.17,-28.82 h 62.28 l -3.36,28.82 h -60.09"
         style="fill:#6564b8;fill-opacity:1;fill-rule:nonzero;stroke:none"
         id="path190" />
      <path
         d="m 1872.3,1478.79 -10.37,-28.82 h 64.08 l 8.82,28.82 h -62.53"
         style="fill:#6564b8;fill-opacity:1;fill-rule:nonzero;stroke:none"
         id="path192" />
      <path
         d="m 2642.74,1531.99 -3.13,26.84 h -54.01 l 1.09,-26.84 h 56.05"
         style="fill:#6564b8;fill-opacity:1;fill-rule:nonzero;stroke:none"
         id="path194" />
      <path
         d="m 2809.22,1408.96 -5.69,28.81 h -61.91 l 4.91,-28.81 h 62.69"
         style="fill:#6564b8;fill-opacity:1;fill-rule:nonzero;stroke:none"
         id="path196" />
      <path
         d="m 2518.44,1558.83 -1.08,-26.84 h 57.12 l -1.09,26.84 h -54.95"
         style="fill:#6564b8;fill-opacity:1;fill-rule:nonzero;stroke:none"
         id="path198" />
      <path
         d="m 2516.87,1519.8 -1.16,-28.83 h 60.42 l -1.15,28.83 h -58.11"
         style="fill:#6564b8;fill-opacity:1;fill-rule:nonzero;stroke:none"
         id="path200" />
      <path
         d="m 2647.52,1490.97 -3.37,28.83 h -56.98 l 1.17,-28.83 h 59.18"
         style="fill:#6564b8;fill-opacity:1;fill-rule:nonzero;stroke:none"
         id="path202" />
      <path
         d="m 2713.19,1531.99 -4.57,26.84 h -56.73 l 3.13,-26.84 h 58.17"
         style="fill:#6564b8;fill-opacity:1;fill-rule:nonzero;stroke:none"
         id="path204" />
      <path
         d="m 2515.22,1478.79 -1.16,-28.82 h 63.73 l -1.16,28.82 h -61.41"
         style="fill:#6564b8;fill-opacity:1;fill-rule:nonzero;stroke:none"
         id="path206" />
      <path
         d="m 2513.57,1437.77 -1.17,-28.81 h 67.04 l -1.16,28.81 h -64.71"
         style="fill:#6564b8;fill-opacity:1;fill-rule:nonzero;stroke:none"
         id="path208" />
      <path
         d="m 2505.16,1531.99 1.08,26.84 h -54.01 l -3.12,-26.84 h 56.05"
         style="fill:#6564b8;fill-opacity:1;fill-rule:nonzero;stroke:none"
         id="path210" />
      <path
         d="m 2378.66,1531.99 h 58.18 l 3.11,26.84 h -56.72 l -4.57,-26.84"
         style="fill:#6564b8;fill-opacity:1;fill-rule:nonzero;stroke:none"
         id="path212" />
      <path
         d="m 2801.12,1449.97 -5.69,28.82 h -60.8 l 4.91,-28.82 h 61.58"
         style="fill:#6564b8;fill-opacity:1;fill-rule:nonzero;stroke:none"
         id="path214" />
      <path
         d="m 2223.26,1478.79 -6.47,-28.82 h 61.51 l 5.7,28.82 h -60.74"
         style="fill:#6564b8;fill-opacity:1;fill-rule:nonzero;stroke:none"
         id="path216" />
      <path
         d="m 1445.44,1396.77 -14.25,-25.21 h 68.46 l 12.15,25.21 h -66.36"
         style="fill:#6564b8;fill-opacity:1;fill-rule:nonzero;stroke:none"
         id="path218" />
      <path
         d="m 3074.66,1449.97 -8.4,28.82 h -52.24 l 8.04,-28.82 h 52.6"
         style="fill:#6564b8;fill-opacity:1;fill-rule:nonzero;stroke:none"
         id="path220" />
      <path
         d="m 3036.88,1396.77 7.03,-25.21 h 53.67 l -7.36,25.21 h -53.34"
         style="fill:#6564b8;fill-opacity:1;fill-rule:nonzero;stroke:none"
         id="path222" />
      <path
         d="m 2939.97,1449.97 -7.25,28.82 h -51.62 l 6.46,-28.82 h 52.41"
         style="fill:#6564b8;fill-opacity:1;fill-rule:nonzero;stroke:none"
         id="path224" />
      <path
         d="m 2500.2,1408.96 1.16,28.81 h -63.21 l -3.35,-28.81 h 65.4"
         style="fill:#6564b8;fill-opacity:1;fill-rule:nonzero;stroke:none"
         id="path226" />
      <path
         d="m 3262.03,1396.77 9.07,-25.21 h 67.56 l -10.08,25.21 h -66.55"
         style="fill:#6564b8;fill-opacity:1;fill-rule:nonzero;stroke:none"
         id="path228" />
      <path
         d="m 3463.02,1449.97 -13.09,28.82 h -63.84 l 12.32,-28.82 h 64.61"
         style="fill:#6564b8;fill-opacity:1;fill-rule:nonzero;stroke:none"
         id="path230" />
      <path
         d="m 3341.72,1396.77 10.08,-25.21 h 66.88 l -10.78,25.21 h -66.18"
         style="fill:#6564b8;fill-opacity:1;fill-rule:nonzero;stroke:none"
         id="path232" />
      <path
         d="m 2362.6,1437.77 -4.91,-28.81 h 64.84 l 3.35,28.81 h -63.28"
         style="fill:#6564b8;fill-opacity:1;fill-rule:nonzero;stroke:none"
         id="path234" />
      <path
         d="m 1468.61,1437.77 -16.28,-28.81 h 65.34 l 13.88,28.81 h -62.94"
         style="fill:#6564b8;fill-opacity:1;fill-rule:nonzero;stroke:none"
         id="path236" />
      <path
         d="m 2670.74,1396.77 2.95,-25.21 h 66.84 l -4.29,25.21 h -65.5"
         style="fill:#6564b8;fill-opacity:1;fill-rule:nonzero;stroke:none"
         id="path238" />
      <path
         d="m 1683.96,1396.77 -10.78,-25.21 h 66.86 l 10.09,25.21 h -66.17"
         style="fill:#6564b8;fill-opacity:1;fill-rule:nonzero;stroke:none"
         id="path240" />
      <path
         d="m 2499.71,1396.77 h -66.33 l -2.93,-25.21 h 68.24 l 1.02,25.21"
         style="fill:#6564b8;fill-opacity:1;fill-rule:nonzero;stroke:none"
         id="path242" />
      <path
         d="m 3385.14,1449.97 -12.3,28.82 h -63.96 l 11.53,-28.82 h 64.73"
         style="fill:#6564b8;fill-opacity:1;fill-rule:nonzero;stroke:none"
         id="path244" />
      <path
         d="m 1525.34,1396.77 -12.15,-25.21 h 66.6 l 11.46,25.21 h -65.91"
         style="fill:#6564b8;fill-opacity:1;fill-rule:nonzero;stroke:none"
         id="path246" />
      <path
         d="m 2807.85,1478.79 5.7,-28.82 h 61.51 l -6.46,28.82 h -60.75"
         style="fill:#6564b8;fill-opacity:1;fill-rule:nonzero;stroke:none"
         id="path248" />
      <path
         d="m 3102.93,1396.77 7.36,-25.21 h 66.77 l -7.72,25.21 h -66.41"
         style="fill:#6564b8;fill-opacity:1;fill-rule:nonzero;stroke:none"
         id="path250" />
      <path
         d="m 2824.06,1396.77 4.97,-25.21 h 63.64 l -5.65,25.21 h -62.96"
         style="fill:#6564b8;fill-opacity:1;fill-rule:nonzero;stroke:none"
         id="path252" />
      <path
         d="m 3153.08,1449.97 -8.81,28.82 h -65.32 l 8.42,-28.82 h 65.71"
         style="fill:#6564b8;fill-opacity:1;fill-rule:nonzero;stroke:none"
         id="path254" />
      <path
         d="m 3229.93,1449.97 -10.37,28.82 h -62.53 l 8.81,-28.82 h 64.09"
         style="fill:#6564b8;fill-opacity:1;fill-rule:nonzero;stroke:none"
         id="path256" />
      <path
         d="m 2748.61,1396.77 4.3,-25.21 h 63.69 l -4.97,25.21 h -63.02"
         style="fill:#6564b8;fill-opacity:1;fill-rule:nonzero;stroke:none"
         id="path258" />
      <path
         d="m 3182.1,1396.77 7.72,-25.21 h 68.32 l -9.07,25.21 h -66.97"
         style="fill:#6564b8;fill-opacity:1;fill-rule:nonzero;stroke:none"
         id="path260" />
      <path
         d="m 1514.98,1519.8 -16.29,-28.83 h 58.48 l 13.88,28.83 h -56.07"
         style="fill:#6564b8;fill-opacity:1;fill-rule:nonzero;stroke:none"
         id="path262" />
      <path
         d="m 3500.6,1396.77 11.46,-25.21 h 66.59 l -12.15,25.21 h -65.9"
         style="fill:#6564b8;fill-opacity:1;fill-rule:nonzero;stroke:none"
         id="path264" />
      <path
         d="m 1537.03,1558.83 -15.16,-26.84 h 55.05 l 12.93,26.84 h -52.82"
         style="fill:#6564b8;fill-opacity:1;fill-rule:nonzero;stroke:none"
         id="path266" />
      <path
         d="m 3307.26,1449.97 -11.52,28.82 h -63.22 l 10.37,-28.82 h 64.37"
         style="fill:#6564b8;fill-opacity:1;fill-rule:nonzero;stroke:none"
         id="path268" />
      <path
         d="m 2338.95,1371.56 4.29,25.21 h -579.97 l -10.09,-25.21 h 585.77"
         style="fill:#6564b8;fill-opacity:1;fill-rule:nonzero;stroke:none"
         id="path270" />
      <path
         d="m 2899.52,1396.77 5.65,-25.21 h 54.52 l -6.33,25.21 h -53.84"
         style="fill:#6564b8;fill-opacity:1;fill-rule:nonzero;stroke:none"
         id="path272" />
      <path
         d="m 2444.34,1490.97 h 59.17 l 1.16,28.83 h -56.97 l -3.36,-28.83"
         style="fill:#6564b8;fill-opacity:1;fill-rule:nonzero;stroke:none"
         id="path274" />
      <path
         d="m 3623.23,1437.77 h -62.93 l 31.89,-66.21 h 68.47 l -37.43,66.21"
         style="fill:#6564b8;fill-opacity:1;fill-rule:nonzero;stroke:none"
         id="path276" />
      <path
         d="m 3554.43,1449.97 h 61.9 l -16.28,28.82 h -59.5 l 13.88,-28.82"
         style="fill:#6564b8;fill-opacity:1;fill-rule:nonzero;stroke:none"
         id="path278" />
      <path
         d="m 3540.89,1449.97 -13.88,28.82 h -63.69 l 13.1,-28.82 h 64.47"
         style="fill:#6564b8;fill-opacity:1;fill-rule:nonzero;stroke:none"
         id="path280" />
      <path
         d="m 2418.17,1371.56 2.93,25.21 h -65.49 l -4.3,-25.21 h 66.86"
         style="fill:#6564b8;fill-opacity:1;fill-rule:nonzero;stroke:none"
         id="path282" />
      <path
         d="m 2511.92,1396.77 -1.03,-25.21 h 150.51 l -2.94,25.21 h -146.54"
         style="fill:#6564b8;fill-opacity:1;fill-rule:nonzero;stroke:none"
         id="path284" />
      <path
         d="m 3421.16,1396.77 10.77,-25.21 h 66.74 l -11.47,25.21 h -66.04"
         style="fill:#6564b8;fill-opacity:1;fill-rule:nonzero;stroke:none"
         id="path286" />
      <path
         d="m 3009.4,1449.97 -8.04,28.82 h -56.06 l 7.25,-28.82 h 56.85"
         style="fill:#6564b8;fill-opacity:1;fill-rule:nonzero;stroke:none"
         id="path288" />
      <path
         d="m 2965.93,1396.77 6.35,-25.21 h 58.97 l -7.03,25.21 h -58.29"
         style="fill:#6564b8;fill-opacity:1;fill-rule:nonzero;stroke:none"
         id="path290" />
      <path
         d="m 1491.79,1478.79 -16.28,-28.82 h 61.91 l 13.88,28.82 h -59.51"
         style="fill:#6564b8;fill-opacity:1;fill-rule:nonzero;stroke:none"
         id="path292" />
      <path
         d="m 1652.72,1531.99 12.19,26.84 h -61.53 l -12.92,-26.84 h 62.26"
         style="fill:#6564b8;fill-opacity:1;fill-rule:nonzero;stroke:none"
         id="path294" />
      <path
         d="m 1604.64,1396.77 -11.46,-25.21 h 66.73 l 10.78,25.21 h -66.05"
         style="fill:#6564b8;fill-opacity:1;fill-rule:nonzero;stroke:none"
         id="path296" />
      <path
         d="m 2501.85,1449.97 1.17,28.82 h -60.1 l -3.35,-28.82 h 62.28"
         style="fill:#6564b8;fill-opacity:1;fill-rule:nonzero;stroke:none"
         id="path298" />
      <path
         d="m 2729.25,1437.77 h -63.28 l 3.35,-28.81 h 64.84 l -4.91,28.81"
         style="fill:#6564b8;fill-opacity:1;fill-rule:nonzero;stroke:none"
         id="path300" />
      <path
         d="m 2212.42,1325.9 c -0.49,0 -0.9,-0.31 -1.05,-0.78 l -48.57,-157.88 c -0.14,-0.43 0.01,-0.76 0.17,-0.96 0.15,-0.21 0.42,-0.44 0.88,-0.44 h 764.14 c 0.46,0 0.74,0.23 0.89,0.44 0.15,0.2 0.31,0.53 0.17,0.96 l -48.58,157.89 c -0.14,0.45 -0.57,0.77 -1.05,0.77 z m 715.57,-169.1 h -764.14 c -3.25,0 -6.22,1.5 -8.16,4.11 -1.92,2.61 -2.48,5.89 -1.52,9 l 48.57,157.88 c 1.32,4.28 5.22,7.15 9.68,7.15 h 667 c 4.47,0 8.36,-2.88 9.68,-7.15 l 48.57,-157.88 c 0.97,-3.11 0.4,-6.39 -1.52,-9 -1.93,-2.61 -4.9,-4.11 -8.16,-4.11"
         style="fill:#6564b8;fill-opacity:1;fill-rule:nonzero;stroke:none"
         id="path302" />
      <path
         d="m 2917.01,2764.95 -830.07,-130.91 798.11,-399.33 826.64,122.94 -794.68,407.3"
         style="fill:#2a367e;fill-opacity:1;fill-rule:nonzero;stroke:none"
         id="path304" />
      <path
         d="m 2086.94,2634.04 v -19 l 798.71,-417.4 826.04,141.83 v 18.18 l -826.64,-122.94 -798.11,399.33"
         style="fill:#2e43a0;fill-opacity:1;fill-rule:nonzero;stroke:none"
         id="path306" />
      <path
         d="m 2395.68,2184.77 -12.71,-84.39 c 0,0 340.84,-273.67 821.45,-139.11 l 7.37,65.93 c -424.83,-71.07 -692.24,66.63 -816.11,157.57"
         style="fill:#2e43a0;fill-opacity:1;fill-rule:nonzero;stroke:none"
         id="path308" />
      <path
         d="m 3407.66,1740.41 c -44.49,35.29 -75.99,87.31 -90.99,142.07 -1.12,4.05 -6.54,2.6 -7.17,-0.89 -1.02,1.35 -3.04,1.54 -4.67,0.69 -0.79,2.81 -5.37,4.1 -7.13,0.7 -30.5,-59.14 -6.94,-125.92 13.47,-184.42 1.6,-4.6 6.69,-2.13 5.08,2.49 -15.98,45.77 -33.07,97.03 -23.35,145.27 -5.42,-60.98 14.9,-123.43 52.12,-171.83 2.68,-3.49 6.86,0.7 4.16,4.23 -33.79,43.92 -51.25,99.68 -49.45,155.05 1.04,-21.81 4.42,-43.56 11.4,-64.12 10.69,-31.52 28.56,-61.6 46.44,-89.5 2.64,-4.11 6.79,0.12 4.16,4.22 -17.19,26.82 -32.02,55.63 -42.75,85.74 -4.59,12.9 -7.63,26.42 -9.54,40.13 10.28,-44.34 31.7,-86.04 62.48,-119.9 3.24,-3.56 7.54,-0.39 4.25,3.22 -33.73,37.09 -54.02,84.58 -62.39,133.59 12.38,-45.9 35.21,-89.3 65.39,-126.58 3.04,-3.77 6.23,0.33 3.14,4.13 -29.45,36.39 -48.92,78.94 -61.08,123.71 16.37,-46.18 37.64,-90.73 75.19,-123.57 3.67,-3.22 7.7,0.51 4.03,3.72 -25.8,22.56 -42.8,53.03 -56.65,83.6 15.02,-26.72 33.11,-51.7 54.1,-74.27 3.31,-3.57 6.11,2.11 2.83,5.64 -18.46,19.85 -32.62,41.84 -46.34,65.09 14.12,-18.93 30.55,-36.16 49.15,-50.92 3.82,-3.04 7.95,-0.33 4.12,2.71"
         style="fill:#fbbf30;fill-opacity:1;fill-rule:nonzero;stroke:none"
         id="path310" />
      <path
         d="m 3329.48,2379.44 c -17.34,20.72 -40.75,34.35 -64.73,45.97 -47.69,23.12 -100.66,33.17 -152.35,42.96 -73.07,13.81 -147.8,26.61 -208.55,72.65 -2.36,1.79 -4.64,0.9 -5.99,-0.93 -0.12,-0.11 -0.21,-0.24 -0.31,-0.36 -0.04,-0.07 -0.09,-0.11 -0.13,-0.18 -1.46,-1.8 -1.86,-4.39 0.31,-6.46 44.52,-42.56 104.04,-63.63 162.64,-78.45 59.21,-14.99 119.64,-25.26 176.31,-48.79 1.75,-0.73 3.51,-1.46 5.27,-2.19 0.34,-0.14 2.21,-1 2.23,-0.99 2.9,-1.4 5.77,-2.86 8.66,-4.29 10.6,-5.26 20.94,-10.72 30.64,-17.54 11.64,-8.2 22.42,-18.23 29.91,-30.42 8.17,-13.33 11.01,-28.28 10.71,-43.78 -0.31,-16.13 -3.3,-32.16 -5.92,-48.04 -2.71,-16.45 -5.15,-32.94 -7.68,-49.41 -5.23,-34.07 -10.1,-68.15 -13.78,-102.41 -8.09,-75.43 -10.3,-152.35 3.27,-227.3 1,-5.56 10.34,-4.34 9.92,1.35 -5.27,71.13 0.53,142.45 10.51,212.92 4.97,35.07 10.98,70 17.12,104.88 5.75,32.75 13.35,65.75 16.04,98.94 2.44,30.09 -4.53,58.48 -24.1,81.87"
         style="fill:#fbbf30;fill-opacity:1;fill-rule:nonzero;stroke:none"
         id="path312" />
      <path
         d="m 3296.23,1874.12 c 0.86,0.42 1.73,0.8 2.6,1.17 0.54,0.21 0.51,0.2 -0.07,-0.02 0.25,0.1 0.5,0.19 0.76,0.27 0.39,0.13 0.78,0.26 1.17,0.37 1.88,0.59 3.83,1.01 5.78,1.29 0.47,0.07 0.95,0.15 1.42,0.18 -1.32,-0.07 0.21,0 0.49,0.02 0.94,0.05 1.9,0.07 2.86,0.05 0.94,-0.02 1.9,-0.08 2.85,-0.17 0.48,-0.05 0.95,-0.1 1.41,-0.16 0.28,-0.03 0.55,-0.08 0.81,-0.12 -0.66,0.12 -0.7,0.13 -0.12,0.02 1.38,-0.26 2.61,-0.33 3.9,0.36 1.08,0.58 2.12,1.74 2.45,2.93 0.63,2.37 -0.52,5.82 -3.3,6.34 -9.49,1.77 -19.07,0.65 -27.78,-3.62 -2.37,-1.17 -3.43,-4.55 -2.07,-6.83 1.44,-2.42 4.3,-3.32 6.84,-2.08 v 0"
         style="fill:#e79c1a;fill-opacity:1;fill-rule:nonzero;stroke:none"
         id="path314" />
      <path
         d="m 3295.21,1883.97 c 0.86,0.43 1.74,0.8 2.62,1.18 0.53,0.21 0.5,0.2 -0.09,-0.03 0.25,0.1 0.52,0.19 0.77,0.28 0.39,0.13 0.78,0.26 1.17,0.38 1.89,0.57 3.82,1 5.78,1.28 0.46,0.07 0.94,0.15 1.42,0.17 -1.32,-0.07 0.22,0.01 0.48,0.02 0.96,0.05 1.91,0.07 2.86,0.05 0.96,-0.02 1.91,-0.07 2.85,-0.16 0.48,-0.04 0.96,-0.1 1.43,-0.16 0.27,-0.04 0.54,-0.08 0.81,-0.13 -0.67,0.13 -0.71,0.13 -0.13,0.03 1.39,-0.26 2.61,-0.34 3.91,0.36 1.07,0.57 2.12,1.73 2.43,2.92 0.63,2.38 -0.51,5.83 -3.29,6.35 -9.49,1.77 -19.06,0.65 -27.77,-3.62 -2.38,-1.16 -3.43,-4.54 -2.08,-6.84 1.43,-2.42 4.29,-3.32 6.83,-2.08 v 0"
         style="fill:#e79c1a;fill-opacity:1;fill-rule:nonzero;stroke:none"
         id="path316" />
      <path
         d="m 3236.73,2225.79 4.14,32.84 -355.22,-60.99 -447.17,233.69 -9.58,-55.22 447.82,-225.45 360.01,75.13"
         style="fill:#1e264e;fill-opacity:1;fill-rule:nonzero;stroke:none"
         id="path318" />
      <path
         d="m 2876.72,2150.66 -447.82,225.45 -33.22,-191.34 c 123.87,-90.94 391.28,-228.64 816.11,-157.57 l 24.94,198.59 -360.01,-75.13"
         style="fill:#2a367e;fill-opacity:1;fill-rule:nonzero;stroke:none"
         id="path320" />
      <path
         d="m 2333.85,1891.06 c 19.82,-53.39 -22.76,-118.45 -95.12,-145.3 -72.35,-26.86 -113.65,7.01 -142.58,56.05 -42.33,71.75 -1.53,110.44 70.81,137.3 72.36,26.85 147.07,5.34 166.89,-48.05"
         style="fill:#fef3d0;fill-opacity:1;fill-rule:nonzero;stroke:none"
         id="path322" />
      <path
         d="m 1611.36,2479.07 c 0,0 179.55,-184.9 326.68,-516.78 0,0 69.78,-180.15 115.56,-225.2 0,0 -37.05,41.74 19.54,108.41 41.55,48.96 102.16,78.97 166.34,81.24 35.85,1.25 73.31,-6.25 94.63,-36.37 0,0 -239.46,282.08 -395.91,525.47 -62.51,97.24 -92.1,177.57 -105.09,238.99 0,0 -11.79,13.87 -35.28,25.47 -86.38,42.67 -188.13,-14.75 -203.2,-109.9 -1.41,-8.88 -2.29,-18.34 -2.53,-28.4 0,0 -1.24,-42.17 19.26,-62.93"
         style="fill:#ffffff;fill-opacity:1;fill-rule:nonzero;stroke:none"
         id="path324" />
      <path
         d="m 2053.6,1737.09 c 0,0 78.59,-94.82 256.58,18.96 0,0 110.15,73.49 55.17,201.5 0,0 -114.24,85.16 -204.32,193.11 -90.08,107.95 -201.5,254.92 -293.95,449.3 l -23.57,14.27 c 0,0 16.99,-92.18 127.01,-247.51 110.03,-155.35 313,-415.4 313,-415.4 l 31.04,-37.4 c 17.82,-21.47 23.95,-50.96 14.1,-77.08 -14.02,-37.18 -55.15,-81.22 -170,-87.9 l -71.72,111.35 c 0,0 -69.64,-57.67 -33.34,-123.2"
         style="fill:#f5e4a8;fill-opacity:1;fill-rule:nonzero;stroke:none"
         id="path326" />
      <path
         d="m 2227.44,2078.47 c 0,0 -206.27,215.09 -350.88,555.57 0,0 -26.07,41.45 -42.66,60.58 0,0 125.7,-388.55 393.54,-616.15"
         style="fill:#ffffff;fill-opacity:1;fill-rule:nonzero;stroke:none"
         id="path328" />
      <path
         d="m 1848.07,2140.89 c 43.4,78.28 137.17,130.04 226.44,125.56 31.77,-1.59 31.68,37.92 0,39.51 -105.87,5.32 -210.82,-47.54 -262.17,-140.14 0,0 20.3,-52.76 35.73,-24.93 v 0"
         style="fill:#fbbf30;fill-opacity:1;fill-rule:nonzero;stroke:none"
         id="path330" />
      <path
         d="m 1528.51,1997.01 h -404.83 c -53.67,0 -97.58,43.9 -97.58,97.58 v 210.83 c 0,53.66 43.91,97.57 97.58,97.57 h 404.83 c 53.67,0 97.58,-43.91 97.58,-97.57 v -210.83 c 0,-53.68 -43.91,-97.58 -97.58,-97.58"
         style="fill:#2e43a0;fill-opacity:1;fill-rule:nonzero;stroke:none"
         id="path332" />
      <path
         d="m 1261.71,2200 v 74.35 l 64.39,-37.18 64.39,-37.17 -64.39,-37.18 -64.39,-37.17 V 2200"
         style="fill:#d0bbe3;fill-opacity:1;fill-rule:nonzero;stroke:none"
         id="path334" />
      <path
         d="m 1208.88,2892.42 c 0,123.96 -100.49,224.44 -224.439,224.44 -123.957,0 -224.445,-100.48 -224.445,-224.44 0,-89.84 52.805,-167.31 129.047,-203.17 v -71.58 h 190.797 v 71.58 c 76.24,35.86 129.04,113.33 129.04,203.17"
         style="fill:#ffffff;fill-opacity:1;fill-rule:nonzero;stroke:none"
         id="path336" />
      <path
         d="M 1085.98,2580.68 H 882.898 c -10.175,0 -18.496,8.32 -18.496,18.5 v 0 c 0,10.17 8.321,18.49 18.496,18.49 h 203.082 c 10.18,0 18.5,-8.32 18.5,-18.49 v 0 c 0,-10.18 -8.32,-18.5 -18.5,-18.5"
         style="fill:#fbbf30;fill-opacity:1;fill-rule:nonzero;stroke:none"
         id="path338" />
      <path
         d="m 984.441,2475.7 v 0 c -40.984,0 -74.207,33.22 -74.207,74.2 v 12.28 h 148.406 v -12.28 c 0,-40.98 -33.22,-74.2 -74.199,-74.2"
         style="fill:#fbbf30;fill-opacity:1;fill-rule:nonzero;stroke:none"
         id="path340" />
      <path
         d="M 1085.98,2543.68 H 882.898 c -10.175,0 -18.496,8.32 -18.496,18.5 v 0 c 0,10.17 8.321,18.5 18.496,18.5 h 203.082 c 10.18,0 18.5,-8.33 18.5,-18.5 v 0 c 0,-10.18 -8.32,-18.5 -18.5,-18.5"
         style="fill:#e79c1a;fill-opacity:1;fill-rule:nonzero;stroke:none"
         id="path342" />
      <path
         d="m 1004.85,2617.67 h -10.518 v 311.8 c 0,5.45 -4.437,9.89 -9.887,9.89 -5.461,0 -9.898,-4.44 -9.898,-9.89 v -311.8 h -10.524 v 311.8 c 0,11.25 9.161,20.41 20.422,20.41 11.254,0 20.405,-9.16 20.405,-20.41 v -311.8"
         style="fill:#fbbf30;fill-opacity:1;fill-rule:nonzero;stroke:none"
         id="path344" />
      <path
         d="m 631.668,2968.94 -6.152,-32.12 93.808,-17.98 c 1.254,10.96 3.176,21.71 5.723,32.23 l -93.379,17.87"
         style="fill:#6564b8;fill-opacity:1;fill-rule:nonzero;stroke:none"
         id="path346" />
      <path
         d="m 705.984,3116.86 -19.777,-26.09 74.82,-56.64 c 5.993,9.15 12.524,17.92 19.567,26.24 l -74.61,56.49"
         style="fill:#6564b8;fill-opacity:1;fill-rule:nonzero;stroke:none"
         id="path348" />
      <path
         d="m 837.129,3216.77 -29.219,-14.71 42.067,-83.38 c 9.386,5.48 19.117,10.45 29.191,14.77 l -42.039,83.32"
         style="fill:#6564b8;fill-opacity:1;fill-rule:nonzero;stroke:none"
         id="path350" />
      <path
         d="m 1343.37,2936.82 -6.16,32.12 -93.38,-17.87 c 2.55,-10.52 4.47,-21.27 5.73,-32.23 l 93.81,17.98"
         style="fill:#6564b8;fill-opacity:1;fill-rule:nonzero;stroke:none"
         id="path352" />
      <path
         d="m 1282.67,3090.77 -19.77,26.09 -74.61,-56.49 c 7.04,-8.33 13.57,-17.09 19.57,-26.24 l 74.81,56.64"
         style="fill:#6564b8;fill-opacity:1;fill-rule:nonzero;stroke:none"
         id="path354" />
      <path
         d="m 1160.97,3202.06 -29.22,14.71 -42.04,-83.32 c 10.08,-4.33 19.81,-9.29 29.19,-14.78 l 42.07,83.39"
         style="fill:#6564b8;fill-opacity:1;fill-rule:nonzero;stroke:none"
         id="path356" />
      <path
         d="m 1001.16,3154.47 -0.8,94.93 -32.731,-0.3 0.816,-94.57 c 5.297,0.32 10.618,0.52 15.996,0.52 5.625,0 11.192,-0.23 16.719,-0.58"
         style="fill:#6564b8;fill-opacity:1;fill-rule:nonzero;stroke:none"
         id="path358" />
      <path
         d="m 4299.74,991.238 h -948.5 v 187.002 h 948.5 V 991.238"
         style="fill:#fbbf30;fill-opacity:1;fill-rule:nonzero;stroke:none"
         id="path360" />
      <path
         d="m 3442.83,991.238 h -38.2 v 187.002 h 38.2 V 991.238"
         style="fill:#e79c1a;fill-opacity:1;fill-rule:nonzero;stroke:none"
         id="path362" />
      <path
         d="m 3500.16,991.238 h -38.2 v 187.002 h 38.2 V 991.238"
         style="fill:#e79c1a;fill-opacity:1;fill-rule:nonzero;stroke:none"
         id="path364" />
      <path
         d="m 4189.02,991.238 h -38.21 v 187.002 h 38.21 V 991.238"
         style="fill:#e79c1a;fill-opacity:1;fill-rule:nonzero;stroke:none"
         id="path366" />
      <path
         d="m 4246.35,991.238 h -38.21 v 187.002 h 38.21 V 991.238"
         style="fill:#e79c1a;fill-opacity:1;fill-rule:nonzero;stroke:none"
         id="path368" />
      <path
         d="m 4390.99,1282.45 v 28.77 c 0,40.89 -33.26,74.15 -74.15,74.15 h -845.36 v -177.08 h 845.36 c 40.89,0 74.15,33.27 74.15,74.16"
         style="fill:#ffffff;fill-opacity:1;fill-rule:nonzero;stroke:none"
         id="path370" />
      <path
         d="m 4316.84,1416.53 h -850.89 v -31.16 h 850.89 c 40.89,0 74.15,-33.26 74.15,-74.15 v -28.77 c 0,-40.89 -33.26,-74.16 -74.15,-74.16 h -850.89 v -15.58 -15.57 h 850.89 c 58.08,0 105.31,47.23 105.31,105.31 v 28.77 c 0,58.07 -47.23,105.31 -105.31,105.31"
         style="fill:#2e43a0;fill-opacity:1;fill-rule:nonzero;stroke:none"
         id="path372" />
      <path
         d="m 4333.4,1331.57 h -861.92 v 14.16 h 861.92 v -14.16"
         style="fill:#f3f2fa;fill-opacity:1;fill-rule:nonzero;stroke:none"
         id="path374" />
      <path
         d="m 4333.4,1288.88 h -861.92 v 14.17 h 861.92 v -14.17"
         style="fill:#f3f2fa;fill-opacity:1;fill-rule:nonzero;stroke:none"
         id="path376" />
      <path
         d="m 4333.4,1246.2 h -861.92 v 14.17 h 861.92 v -14.17"
         style="fill:#f3f2fa;fill-opacity:1;fill-rule:nonzero;stroke:none"
         id="path378" />
      <path
         d="m 3399.02,1510.25 v 25.91 c 0,36.82 29.96,66.77 66.78,66.77 h 761.19 V 1443.48 H 3465.8 c -36.82,0 -66.78,29.95 -66.78,66.77"
         style="fill:#ffffff;fill-opacity:1;fill-rule:nonzero;stroke:none"
         id="path380" />
      <path
         d="m 3465.8,1630.98 h 766.17 v -28.05 H 3465.8 c -36.82,0 -66.78,-29.95 -66.78,-66.77 v -25.91 c 0,-36.82 29.96,-66.77 66.78,-66.77 h 766.17 v -14.03 -14.02 H 3465.8 c -52.3,0 -94.84,42.53 -94.84,94.82 v 25.91 c 0,52.28 42.54,94.82 94.84,94.82"
         style="fill:#fbbf30;fill-opacity:1;fill-rule:nonzero;stroke:none"
         id="path382" />
      <path
         d="m 3450.88,1554.48 h 776.11 v 12.75 h -776.11 v -12.75"
         style="fill:#f3f2fa;fill-opacity:1;fill-rule:nonzero;stroke:none"
         id="path384" />
      <path
         d="m 3450.88,1516.04 h 776.11 v 12.77 h -776.11 v -12.77"
         style="fill:#f3f2fa;fill-opacity:1;fill-rule:nonzero;stroke:none"
         id="path386" />
      <path
         d="m 3450.88,1477.61 h 776.11 v 12.76 h -776.11 v -12.76"
         style="fill:#f3f2fa;fill-opacity:1;fill-rule:nonzero;stroke:none"
         id="path388" />
      <path
         d="m 1869.59,3619.35 v 0 c 35.82,0 64.86,-28.15 64.86,-62.89 v -9.57 c 13.05,-36.71 21,-84.49 21,-136.87 0,-52.39 -7.95,-100.16 -21,-136.88 v -9.57 c 0,-34.74 -29.04,-62.89 -64.86,-62.89 v 0 c -47.43,0 -85.87,93.72 -85.87,209.34 0,115.61 38.44,209.33 85.87,209.33"
         style="fill:#fbbf30;fill-opacity:1;fill-rule:nonzero;stroke:none"
         id="path390" />
      <path
         d="m 1812.91,3407.35 c 0,-70.73 5.47,-128.06 12.22,-128.06 6.76,0 12.23,57.33 12.23,128.06 0,70.72 -5.47,128.06 -12.23,128.06 -6.75,0 -12.22,-57.34 -12.22,-128.06"
         style="fill:#e79c1a;fill-opacity:1;fill-rule:nonzero;stroke:none"
         id="path392" />
      <path
         d="m 2025.29,3504.87 v -195.05 c -4.41,-48.26 -48.81,-92.99 -108.31,-109.14 v 117.53 178.27 117.54 c 59.5,-16.16 103.9,-60.89 108.31,-109.15"
         style="fill:#6564b8;fill-opacity:1;fill-rule:nonzero;stroke:none"
         id="path394" />
      <path
         d="m 1916.98,3178.27 v 0 c 9.68,0 17.61,7.68 17.61,17.07 v 424.01 c 0,9.39 -7.93,17.08 -17.61,17.08 v 0 c -9.69,0 -17.62,-7.69 -17.62,-17.08 v -424.01 c 0,-9.39 7.93,-17.07 17.62,-17.07"
         style="fill:#2e43a0;fill-opacity:1;fill-rule:nonzero;stroke:none"
         id="path396" />
      <path
         d="m 1532.59,3619.35 v 0 c -35.82,0 -64.86,-28.15 -64.86,-62.89 v -9.57 c -13.05,-36.71 -21,-84.49 -21,-136.87 0,-52.39 7.95,-100.16 21,-136.88 v -9.57 c 0,-34.74 29.04,-62.89 64.86,-62.89 v 0 c 47.43,0 85.87,93.72 85.87,209.34 0,115.61 -38.44,209.33 -85.87,209.33"
         style="fill:#fbbf30;fill-opacity:1;fill-rule:nonzero;stroke:none"
         id="path398" />
      <path
         d="m 1589.28,3407.35 c 0,-70.73 -5.48,-128.06 -12.23,-128.06 -6.76,0 -12.23,57.33 -12.23,128.06 0,70.72 5.47,128.06 12.23,128.06 6.75,0 12.23,-57.34 12.23,-128.06"
         style="fill:#e79c1a;fill-opacity:1;fill-rule:nonzero;stroke:none"
         id="path400" />
      <path
         d="m 1376.89,3504.87 v -195.05 c 4.42,-48.26 48.81,-92.99 108.32,-109.14 v 117.53 178.27 117.54 c -59.51,-16.16 -103.9,-60.89 -108.32,-109.15"
         style="fill:#6564b8;fill-opacity:1;fill-rule:nonzero;stroke:none"
         id="path402" />
      <path
         d="m 1485.21,3178.27 v 0 c -9.69,0 -17.62,7.68 -17.62,17.07 v 424.01 c 0,9.39 7.93,17.08 17.62,17.08 v 0 c 9.68,0 17.61,-7.69 17.61,-17.08 v -424.01 c 0,-9.39 -7.93,-17.07 -17.61,-17.07"
         style="fill:#2e43a0;fill-opacity:1;fill-rule:nonzero;stroke:none"
         id="path404" />
      <path
         d="m 1918.64,3877.39 c -35.19,29.05 -81.33,47.45 -125.11,58.19 -44.94,11.02 -91.88,13.85 -137.83,8.52 -13.87,-1.61 -27.68,-3.78 -41.34,-6.66 -9.35,-1.96 -19.62,-3.5 -28.29,-7.61 -9.06,-4.31 -17.94,-9.05 -26.9,-13.56 -24.27,-12.24 -48.53,-24.46 -72.8,-36.69 -9.66,-4.87 -8.51,-19 0,-24.16 22.43,-13.6 48.13,-15.34 73.52,-11.29 17.86,2.84 34.17,9.48 51.13,15.35 30.45,10.55 63.35,15.71 95.5,15.86 28.67,0.14 57.75,-4.16 84.25,-15.48 39.19,-16.89 86.07,-28.12 125.04,-4.44 7.08,4.3 9.99,16.06 2.83,21.97"
         style="fill:#6564b8;fill-opacity:1;fill-rule:nonzero;stroke:none"
         id="path406" />
      <path
         d="m 1707.15,3959.65 0.06,0.3 c -2.05,0 -4.07,-0.11 -6.12,-0.15 -2.04,0.04 -4.06,0.15 -6.11,0.15 l 0.05,-0.3 c -202.04,-6.45 -363.88,-172.14 -363.88,-375.75 v -228.18 c 0,-25.34 20.55,-45.89 45.89,-45.89 v 224.96 l -0.99,5.85 c -15.47,91.23 4.31,186.18 59.97,260.09 25.99,34.53 61.22,67.04 108.9,90.53 0.57,0.27 1.13,0.55 1.7,0.83 97.15,47.36 211.79,47.36 308.95,0 0.56,-0.28 1.13,-0.56 1.69,-0.83 47.97,-23.63 83.32,-56.39 109.36,-91.14 55.34,-73.84 74.93,-168.55 59.5,-259.53 l -0.98,-5.8 v -224.96 c 25.34,0 45.89,20.55 45.89,45.89 v 228.18 c 0,203.61 -161.84,369.3 -363.88,375.75"
         style="fill:#2e43a0;fill-opacity:1;fill-rule:nonzero;stroke:none"
         id="path408" />
      <path
         d="M 4481.4,2278.93 H 3884.73 V 3141.8 H 4481.4 V 2278.93"
         style="fill:#d0bbe3;fill-opacity:1;fill-rule:nonzero;stroke:none"
         id="path410" />
      <path
         d="m 4417,2996.15 h -467.86 v 19.09 H 4417 v -19.09"
         style="fill:#6564b8;fill-opacity:1;fill-rule:nonzero;stroke:none"
         id="path412" />
      <path
         d="m 4417,2908.47 h -467.86 v 19.1 H 4417 v -19.1"
         style="fill:#6564b8;fill-opacity:1;fill-rule:nonzero;stroke:none"
         id="path414" />
      <path
         d="m 4417,2820.8 h -467.86 v 19.09 H 4417 v -19.09"
         style="fill:#6564b8;fill-opacity:1;fill-rule:nonzero;stroke:none"
         id="path416" />
      <path
         d="m 4417,2733.13 h -467.86 v 19.09 H 4417 v -19.09"
         style="fill:#6564b8;fill-opacity:1;fill-rule:nonzero;stroke:none"
         id="path418" />
      <path
         d="m 4417,2645.45 h -467.86 v 19.1 H 4417 v -19.1"
         style="fill:#6564b8;fill-opacity:1;fill-rule:nonzero;stroke:none"
         id="path420" />
      <path
         d="m 4417,2557.78 h -467.86 v 19.09 H 4417 v -19.09"
         style="fill:#6564b8;fill-opacity:1;fill-rule:nonzero;stroke:none"
         id="path422" />
      <path
         d="m 4417,2358.64 h -467.86 v 5.26 H 4417 v -5.26"
         style="fill:#ffffff;fill-opacity:1;fill-rule:nonzero;stroke:none"
         id="path424" />
      <path
         d="m 4013.06,2446.76 c 23.9,-4.02 48.17,-5.22 72.33,-3.12 22.32,1.93 46.02,5.7 66.84,14.28 14.83,6.11 30.97,22.85 20.57,39.77 -9.16,14.91 -32.15,16.43 -47.37,12.8 -17.77,-4.22 -33.57,-15.86 -44.37,-30.38 -10.81,-14.53 -18.33,-35.48 -5.54,-51.2 11.82,-14.52 33.46,-17.43 50.89,-15.01 9.8,1.36 19.34,4.6 27.9,9.55 4.01,2.32 7.71,5.06 11.26,8.01 4.64,3.85 9.5,8.95 15.77,9.82 7.53,1.04 9.27,-4.65 14.06,-8.75 3.33,-2.86 7.6,-3.82 11.89,-3.38 5.29,0.53 10.1,2.82 15,4.71 6.17,2.39 12.27,3.29 18.88,3.13 28.46,-0.68 57.15,-4.46 85.53,-6.77 5.05,-0.41 5.02,4.33 0,4.74 -21.14,1.71 -42.26,6.58 -63.38,8.3 -9.64,0.78 -19.55,2.26 -29.23,1.46 -9.1,-0.74 -16.42,-5.47 -25.12,-7.33 -9.79,-2.09 -11.15,7.75 -18.98,10.77 -6.97,2.67 -14.62,0.42 -20.58,-3.56 -7.26,-4.86 -13.16,-11.18 -20.94,-15.36 -8.7,-4.7 -18.51,-7.51 -28.39,-8.11 -16,-0.97 -39.81,3.92 -43.19,22.84 -3.08,17.27 11.25,35.11 23.73,45.29 12.82,10.48 30.12,17.41 46.83,14.35 7.95,-1.46 18.33,-5.2 20.27,-14.12 2.27,-10.41 -6.93,-18.81 -15.27,-22.9 -9.76,-4.78 -21.03,-7.22 -31.56,-9.57 -11.7,-2.61 -23.56,-4.45 -35.5,-5.49 -23.43,-2.03 -47.04,-3.16 -70.24,0.73 -4.96,0.84 -7.1,-4.66 -2.09,-5.5 v 0"
         style="fill:#6564b8;fill-opacity:1;fill-rule:nonzero;stroke:none"
         id="path426" />
      <path
         d="m 4680.84,2618.03 -104.9,56.91 30.84,56.83 c 6.67,12.3 22.05,16.86 34.35,10.18 l 60.36,-32.74 c 12.3,-6.68 16.86,-22.05 10.19,-34.35 l -30.84,-56.83"
         style="fill:#d0bbe3;fill-opacity:1;fill-rule:nonzero;stroke:none"
         id="path428" />
      <path
         d="m 4370.56,2046.22 -104.89,56.91 302.99,558.38 104.89,-56.92 -302.99,-558.37"
         style="fill:#2e43a0;fill-opacity:1;fill-rule:nonzero;stroke:none"
         id="path430" />
      <path
         d="m 4336.85,2064.51 -37.46,20.33 302.98,558.37 37.46,-20.32 -302.98,-558.38"
         style="fill:#2a367e;fill-opacity:1;fill-rule:nonzero;stroke:none"
         id="path432" />
      <path
         d="m 4686.03,2597.82 -129.86,70.46 13.62,25.11 129.86,-70.47 -13.62,-25.1"
         style="fill:#fbbf30;fill-opacity:1;fill-rule:nonzero;stroke:none"
         id="path434" />
      <path
         d="m 4370.56,2046.22 -104.89,56.91 -10.63,-95.16 41.54,-22.54 73.98,60.79"
         style="fill:#d0bbe3;fill-opacity:1;fill-rule:nonzero;stroke:none"
         id="path436" />
      <path
         d="m 4296.58,1985.43 -41.54,22.54 -6.99,-62.42 z"
         style="fill:#2e43a0;fill-opacity:1;fill-rule:nonzero;stroke:none"
         id="path438" />
      <path
         d="M 929.656,3587.58 1036.98,3480.25"
         style="fill:none;stroke:#6564b8;stroke-width:21.4574;stroke-linecap:butt;stroke-linejoin:miter;stroke-miterlimit:10;stroke-dasharray:none;stroke-opacity:1"
         id="path440" />
      <path
         d="M 1039.14,3587.58 931.809,3480.25"
         style="fill:none;stroke:#6564b8;stroke-width:21.4574;stroke-linecap:butt;stroke-linejoin:miter;stroke-miterlimit:10;stroke-dasharray:none;stroke-opacity:1"
         id="path442" />
      <path
         d="m 4540.37,1977.72 107.32,-107.33"
         style="fill:none;stroke:#6564b8;stroke-width:21.4574;stroke-linecap:butt;stroke-linejoin:miter;stroke-miterlimit:10;stroke-dasharray:none;stroke-opacity:1"
         id="path444" />
      <path
         d="M 4649.85,1977.72 4542.53,1870.39"
         style="fill:none;stroke:#6564b8;stroke-width:21.4574;stroke-linecap:butt;stroke-linejoin:miter;stroke-miterlimit:10;stroke-dasharray:none;stroke-opacity:1"
         id="path446" />
      <path
         d="m 626.805,2353.84 95.043,-95.03"
         style="fill:none;stroke:#2e43a0;stroke-width:19.0008;stroke-linecap:butt;stroke-linejoin:miter;stroke-miterlimit:10;stroke-dasharray:none;stroke-opacity:1"
         id="path448" />
      <path
         d="m 723.758,2353.84 -95.047,-95.03"
         style="fill:none;stroke:#2e43a0;stroke-width:19.0008;stroke-linecap:butt;stroke-linejoin:miter;stroke-miterlimit:10;stroke-dasharray:none;stroke-opacity:1"
         id="path450" />
      <path
         d="m 576.441,3141.8 c 0,-42.9 -34.781,-77.68 -77.683,-77.68 -42.903,0 -77.684,34.78 -77.684,77.68 0,42.91 34.781,77.69 77.684,77.69 42.902,0 77.683,-34.78 77.683,-77.69 z"
         style="fill:none;stroke:#6564b8;stroke-width:21.4574;stroke-linecap:butt;stroke-linejoin:miter;stroke-miterlimit:10;stroke-dasharray:none;stroke-opacity:1"
         id="path452" />
      <path
         d="m 3694.02,3279.29 c 0,-42.9 -34.78,-77.68 -77.69,-77.68 -42.9,0 -77.67,34.78 -77.67,77.68 0,42.9 34.77,77.68 77.67,77.68 42.91,0 77.69,-34.78 77.69,-77.68 z"
         style="fill:none;stroke:#6564b8;stroke-width:21.4574;stroke-linecap:butt;stroke-linejoin:miter;stroke-miterlimit:10;stroke-dasharray:none;stroke-opacity:1"
         id="path454" />
      <path
         d="m 3970.72,3387.61 c 0,-10.9 -8.84,-19.74 -19.74,-19.74 -10.91,0 -19.74,8.84 -19.74,19.74 0,10.9 8.83,19.74 19.74,19.74 10.9,0 19.74,-8.84 19.74,-19.74 z"
         style="fill:none;stroke:#2e43a0;stroke-width:19.0008;stroke-linecap:butt;stroke-linejoin:miter;stroke-miterlimit:10;stroke-dasharray:none;stroke-opacity:1"
         id="path456" />
      <path
         d="m 2067.24,4045.78 c 0,-10.9 -8.84,-19.74 -19.74,-19.74 -10.9,0 -19.74,8.84 -19.74,19.74 0,10.9 8.84,19.74 19.74,19.74 10.9,0 19.74,-8.84 19.74,-19.74 z"
         style="fill:none;stroke:#2e43a0;stroke-width:19.0008;stroke-linecap:butt;stroke-linejoin:miter;stroke-miterlimit:10;stroke-dasharray:none;stroke-opacity:1"
         id="path458" />
      <path
         d="M 733.586,1335.28 V 1375 c 0,42.29 32.672,77.05 74.09,80.5 v -189.49 c 0,-3.77 0.133,-7.52 0.285,-11.25 -41.555,3.31 -74.375,38.12 -74.375,80.52 z m 74.09,205.52 v -46.68 C 744.957,1490.58 694.973,1438.59 694.973,1375 v -39.72 c 0,-65.16 52.457,-118.21 117.343,-119.36 23.555,-127.82 135.497,-224.682 270.134,-224.682 h 0.01 c 151.75,0 274.77,123.012 274.77,274.772 V 1540.8 H 807.676"
         style="fill:#2e43a0;fill-opacity:1;fill-rule:nonzero;stroke:none"
         id="path460" />
      <path
         d="m 1220.37,1853.6 c -34.97,18.03 -80.89,9.53 -108.99,-18 -5.04,40.1 -43.15,70.41 -83.12,76.39 -39.963,5.98 -80.514,-8.04 -115.576,-28.12 -34.391,-19.7 -66.5,-47.03 -80.914,-83.95 -14.411,-36.92 -6.344,-84.5 26.308,-106.96 13.258,-9.13 30.156,-11.69 46.035,-9.04 2.094,-12.56 7.059,-24.54 15.231,-34.47 27.234,-33.11 83.446,-36.38 114.336,-6.66 23.44,-20.74 59.42,-25.98 87.8,-12.77 6.17,2.87 11.88,6.62 17.07,10.98 -2.09,-27.51 -12.54,-54.43 -30.14,-75.72 34.09,11.86 63.25,37.29 79.62,69.44 10.74,21.1 15.78,44.93 15.12,68.57 26.54,5.12 50.89,24.53 59.53,50.52 12.42,37.32 -7.35,81.76 -42.31,99.79"
         style="fill:#d0bbe3;fill-opacity:1;fill-rule:nonzero;stroke:none"
         id="path462" />
      <path
         d="m 2453.56,3503.06 h -0.05 c -1.42,0.13 -2.9,0.19 -4.4,0.19 -29.24,0 -53.03,-23.79 -53.03,-53.03 0,-29.24 23.79,-53.03 53.03,-53.03 1.5,0 2.96,0.06 4.33,0.18 27.33,2.25 48.7,25.46 48.7,52.85 0,27.39 -21.34,50.6 -48.58,52.84"
         style="fill:#2e43a0;fill-opacity:1;fill-rule:nonzero;stroke:none"
         id="path464" />
      <path
         d="m 2520.1,3384.55 c -16.48,-17.81 -38.84,-28.71 -62.96,-30.7 -2.59,-0.22 -5.3,-0.33 -8.03,-0.33 -53.32,0 -96.7,43.38 -96.7,96.7 0,53.32 43.38,96.7 96.7,96.7 2.74,0 5.48,-0.12 8.14,-0.35 24.03,-1.97 46.36,-12.87 62.85,-30.68 16.59,-17.92 25.72,-41.24 25.72,-65.67 0,-24.43 -9.13,-47.75 -25.72,-65.67 z m 119.29,65.67 c 0,9.16 -3.56,17.77 -10.05,24.26 -6.48,6.48 -15.1,10.05 -24.26,10.05 h -19.64 l -2.03,6.64 c -2.62,8.66 -6.12,17.09 -10.38,25.05 l -3.27,6.13 13.9,13.9 c 13.38,13.38 13.38,35.14 0.01,48.52 -6.48,6.48 -15.1,10.05 -24.27,10.05 -9.17,0 -17.78,-3.56 -24.26,-10.04 l -13.9,-13.91 -6.13,3.27 c -7.96,4.26 -16.39,7.75 -25.05,10.39 l -6.64,2.01 v 19.65 c 0,16.25 -11.55,30.4 -27.48,33.63 -2.24,0.46 -4.55,0.68 -6.83,0.68 -9.16,0 -17.78,-3.56 -24.26,-10.05 -6.48,-6.48 -10.05,-15.1 -10.05,-24.26 v -19.65 l -6.64,-2.01 c -8.66,-2.63 -17.08,-6.13 -25.05,-10.39 l -6.13,-3.27 -13.9,13.91 c -13.37,13.37 -35.14,13.37 -48.53,0 -6.47,-6.48 -10.04,-15.11 -10.04,-24.27 0,-9.17 3.57,-17.78 10.04,-24.26 l 13.91,-13.9 -3.27,-6.13 c -4.26,-7.96 -7.75,-16.39 -10.39,-25.05 l -2.02,-6.64 h -19.64 c -18.92,0 -34.32,-15.39 -34.32,-34.31 0,-9.16 3.58,-17.78 10.06,-24.26 6.48,-6.48 15.1,-10.05 24.26,-10.05 h 19.64 l 2.02,-6.64 c 2.64,-8.65 6.13,-17.09 10.39,-25.05 l 3.27,-6.12 -13.9,-13.91 c -13.38,-13.37 -13.38,-35.15 0,-48.52 6.47,-6.48 15.09,-10.05 24.26,-10.05 9.17,0 17.78,3.57 24.26,10.05 l 13.91,13.9 6.12,-3.27 c 7.97,-4.26 16.4,-7.75 25.05,-10.39 l 6.64,-2.02 v -19.64 c 0,-18.92 15.39,-34.32 34.31,-34.32 2.22,0 4.47,0.22 6.67,0.66 l 1.05,0.22 c 6.25,1.43 11.96,4.6 16.54,9.18 6.48,6.49 10.05,15.1 10.05,24.26 v 19.64 l 6.64,2.02 c 8.66,2.64 17.08,6.13 25.05,10.39 l 6.13,3.27 13.9,-13.91 c 6.47,-6.46 15.08,-10.02 24.26,-10.02 9.18,0 17.79,3.56 24.27,10.03 6.47,6.48 10.04,15.1 10.04,24.27 0,9.16 -3.57,17.78 -10.04,24.26 l -13.91,13.89 3.27,6.13 c 4.26,7.97 7.76,16.4 10.38,25.05 l 2.03,6.64 h 19.64 c 18.92,0 34.31,15.39 34.31,34.31"
         style="fill:#2e43a0;fill-opacity:1;fill-rule:nonzero;stroke:none"
         id="path466" />
      <path
         d="m 3921.88,1956.24 -0.02,-0.03 c -0.41,-0.84 -0.79,-1.73 -1.14,-2.64 -6.86,-17.81 2.05,-37.88 19.86,-44.74 17.82,-6.86 37.89,2.06 44.75,19.87 0.35,0.91 0.65,1.81 0.91,2.68 5.04,17.18 -4.1,35.64 -20.77,42.06 -16.69,6.43 -35.83,-1.13 -43.59,-17.2"
         style="fill:#2e43a0;fill-opacity:1;fill-rule:nonzero;stroke:none"
         id="path468" />
      <path
         d="m 4009.67,1968.98 c 7,-14.22 8.39,-30.4 3.94,-45.56 -0.47,-1.63 -1.04,-3.3 -1.68,-4.97 -12.5,-32.48 -49.1,-48.73 -81.58,-36.23 -32.49,12.51 -48.74,49.11 -36.23,81.6 0.63,1.67 1.35,3.31 2.12,4.87 6.83,14.18 18.71,25.22 33.43,31.09 14.8,5.9 31.15,6 46.03,0.27 14.89,-5.74 26.95,-16.76 33.97,-31.07 z m -12.02,88.08 c -5.57,2.15 -11.67,1.99 -17.14,-0.44 -5.46,-2.42 -9.66,-6.84 -11.81,-12.42 l -4.6,-11.97 -4.52,0.33 c -5.89,0.43 -11.85,0.28 -17.7,-0.45 l -4.5,-0.56 -5.21,11.73 c -5.01,11.29 -18.27,16.39 -29.56,11.38 -5.47,-2.43 -9.65,-6.83 -11.81,-12.43 -2.15,-5.57 -2,-11.67 0.43,-17.13 l 5.21,-11.72 -3.43,-2.97 c -4.46,-3.86 -8.57,-8.17 -12.2,-12.83 l -2.79,-3.57 -11.97,4.61 c -9.89,3.81 -21.22,0.09 -26.93,-8.86 -0.8,-1.26 -1.48,-2.6 -2.01,-3.99 -2.15,-5.59 -2,-11.67 0.43,-17.14 2.43,-5.47 6.84,-9.67 12.42,-11.82 l 11.97,-4.61 -0.33,-4.51 c -0.42,-5.89 -0.28,-11.84 0.45,-17.7 l 0.55,-4.5 -11.72,-5.2 c -11.28,-5.02 -16.39,-18.28 -11.38,-29.57 2.42,-5.46 6.83,-9.66 12.42,-11.81 5.59,-2.15 11.67,-2 17.14,0.43 l 11.73,5.21 2.96,-3.43 c 3.85,-4.46 8.17,-8.56 12.83,-12.2 l 3.56,-2.78 -4.6,-11.97 c -4.44,-11.53 1.33,-24.51 12.85,-28.96 5.59,-2.15 11.67,-1.99 17.14,0.44 5.47,2.43 9.67,6.84 11.82,12.42 l 4.61,11.97 4.51,-0.33 c 5.89,-0.43 11.85,-0.27 17.7,0.45 l 4.5,0.56 5.2,-11.73 c 5.01,-11.29 18.27,-16.4 29.56,-11.39 5.47,2.44 9.66,6.85 11.82,12.44 2.15,5.58 1.99,11.67 -0.43,17.13 l -5.21,11.73 3.42,2.96 c 4.47,3.86 8.58,8.18 12.21,12.83 l 2.78,3.57 11.98,-4.61 c 11.52,-4.43 24.51,1.33 28.94,12.86 0.53,1.35 0.92,2.77 1.17,4.21 l 0.11,0.69 c 0.6,4.15 0.01,8.37 -1.71,12.24 -2.43,5.47 -6.84,9.66 -12.42,11.81 l -11.97,4.61 0.33,4.51 c 0.42,5.9 0.27,11.85 -0.45,17.7 l -0.56,4.49 11.73,5.22 c 5.45,2.42 9.65,6.84 11.8,12.42 2.15,5.6 2,11.68 -0.42,17.14 -2.43,5.47 -6.85,9.66 -12.42,11.81 -5.59,2.14 -11.67,2 -17.14,-0.43 l -11.73,-5.21 -2.96,3.43 c -3.86,4.46 -8.17,8.56 -12.83,12.21 l -3.57,2.78 4.6,11.96 c 4.45,11.54 -1.32,24.51 -12.85,28.96"
         style="fill:#2e43a0;fill-opacity:1;fill-rule:nonzero;stroke:none"
         id="path470" />
    </g>
  </g>
</svg>
